<svg viewBox="0 0 194 40" xmlns="http://www.w3.org/2000/svg"><g fill="#082d42"><path d="m3.78 39a4.81 4.81 0 0 0 -1.16-.25 1.63 1.63 0 0 1 -.91-.61 1.76 1.76 0 0 1 -.35-1.07 2.17 2.17 0 0 1 0-.51 1.66 1.66 0 0 0 .25-.72 5.28 5.28 0 0 0 .12-1.05 4.12 4.12 0 0 0 .27-.54c.06-.21.14-.49.24-.86.25-1.39.83-3.67 1.76-6.89a30.1 30.1 0 0 1 1.67-5.17v-.51a2.72 2.72 0 0 1 .1-.56 2.46 2.46 0 0 1 .42-.89c.12-.37.22-.73.3-1.09s.13-.63.16-.81a8.27 8.27 0 0 0 .63-1.4c.29-.78.49-1.29.58-1.54.22-.59.49-1.28.82-2.07s.55-1.31.67-1.56v-.23a5.67 5.67 0 0 0 .49-1l.67-1.46 1.73-3.87.51-1.07a4 4 0 0 0 .42-1.11 1.38 1.38 0 0 1 1-.52 1.87 1.87 0 0 1 1.33.63 5.59 5.59 0 0 1 1 1.33l.47.74-1.74 3.4c-.46.83-.88 1.62-1.25 2.35a5.21 5.21 0 0 0 -.56 1.28c-.1.21-.26.66-.49 1.35s-.49 1.46-.77 2.32c-.43 1.18-.79 2.07-1.07 2.66a3.51 3.51 0 0 0 -.37.88q0-.18 5.16-.18h2.89a25.52 25.52 0 0 0 2.65-.14l2.42-.26 1.31-4.15q.47-1.62 2.05-6.33a8.51 8.51 0 0 1 1.49-2.91 2.23 2.23 0 0 1 1.49-.95 3 3 0 0 1 .95.53 2.53 2.53 0 0 1 .91.91 1.52 1.52 0 0 1 .51 1.07 3.81 3.81 0 0 1 -.75 1.83 30.15 30.15 0 0 0 -1.58 3.68c-.28.83-.45 1.32-.51 1.44a2 2 0 0 1 -.47 1.44 6.17 6.17 0 0 0 -.65 1.33 6.56 6.56 0 0 0 -.46 1.33 2.81 2.81 0 0 1 -.13.78 1.52 1.52 0 0 1 -.33.63l-.32 1.12a85.71 85.71 0 0 1 -2.56 8.19 2.91 2.91 0 0 1 -.24.84 3 3 0 0 0 -.23.84c-.06.21-.2.65-.42 1.3a6 6 0 0 0 -.32 1.16c-.22 1-.44 2.1-.66 3.4s-.35 2.22-.42 2.75a2.8 2.8 0 0 1 -1.3-.1 4.28 4.28 0 0 1 -1-.49 6.64 6.64 0 0 0 -.65-.39 1.86 1.86 0 0 1 -1.12-1.68 3.35 3.35 0 0 1 .42-1.44 27.18 27.18 0 0 0 .89-3l.42-1.72c.25-.68.46-1.34.65-2s.36-1.18.51-1.65a16.22 16.22 0 0 1 .93-2.88v-.48c-.09-.16-1-.23-2.74-.23a48.86 48.86 0 0 0 -5.92.37h-4c-.16.34-.6 1.7-1.35 4.07a44 44 0 0 0 -1.24 4.54c-.21 1-.56 2.44-1 4.26s-.82 3.14-1.07 4z"/><path d="m29.66 35a5.16 5.16 0 0 1 -1.16-1.79.4.4 0 0 0 -.1-.21 1.4 1.4 0 0 0 -.14-.16c-.12-.09-.18-.61-.18-1.54 0-.74 0-1.52.11-2.32a13.27 13.27 0 0 1 .31-2l.83-2.47.67-1.81 1.24-2.7-1.86-.51a.78.78 0 0 1 -.54-.33.89.89 0 0 1 -.2-.51 2.5 2.5 0 0 1 .36-1.07c.26-.46.47-.7.63-.7a3.27 3.27 0 0 0 .74.05 12 12 0 0 0 2.1-.14 1.1 1.1 0 0 0 .65-.75 6.66 6.66 0 0 1 .47-.86c.15-.23.31-.49.46-.76s.24-.48.44-.87.46-.83.77-1.32l.42-.68a3.65 3.65 0 0 1 .79-.91 2.62 2.62 0 0 1 .75-.39 2.76 2.76 0 0 1 .93-.16 1.92 1.92 0 0 1 1.35.46 2.15 2.15 0 0 1 .42 1 2.07 2.07 0 0 1 -.38 1 11.42 11.42 0 0 1 -.9 1.45 14.43 14.43 0 0 0 -.83 1.35 1.81 1.81 0 0 0 -.47.93c0 .21.2.32.61.32a13.62 13.62 0 0 0 2.18-.28 3.8 3.8 0 0 1 .65 0 1.81 1.81 0 0 1 1.59.65 2.73 2.73 0 0 1 .46 1.63c0 .43-.14.7-.44.79a8.57 8.57 0 0 1 -2 .14 19.2 19.2 0 0 1 -3.07.23h-.63a3.82 3.82 0 0 0 -.72.11 1 1 0 0 0 -.53.28 2.46 2.46 0 0 0 -.35.61 6.3 6.3 0 0 0 -.66 1.07c-.43.9-.71 1.44-.83 1.63a47.62 47.62 0 0 0 -1.87 7.3 4.64 4.64 0 0 0 0 .7.94.94 0 0 0 .39.86 3.23 3.23 0 0 0 1.56.26 9 9 0 0 0 2.47-.33 17.93 17.93 0 0 0 2.09-1c.28-.15.54-.3.77-.44l.49-.3q.18-.37.63.09a3.22 3.22 0 0 1 .67 1.07 3.38 3.38 0 0 1 -.32 1.51 3.88 3.88 0 0 1 -1.63 1.42 11.24 11.24 0 0 1 -3.07 1.35 11.68 11.68 0 0 1 -3 .42 7.21 7.21 0 0 1 -1.45-.14 3.32 3.32 0 0 1 -1.67-1.23z"/><path d="m63.39 36.76a2.8 2.8 0 0 1 -1.39-.37 1.73 1.73 0 0 1 -.83-1.12c0-.1-.17-.39-.4-.89a4 4 0 0 1 -.35-1.72 3.56 3.56 0 0 1 0-.65l.23-1.44a3.87 3.87 0 0 1 .19-1.07v-.42c0-.53 0-.79-.14-.79-.25 0-.9.57-1.94 1.72a28.66 28.66 0 0 0 -2.67 3.4 6.9 6.9 0 0 0 -.72 1.23 3.88 3.88 0 0 1 -.49.86.79.79 0 0 1 -.56.19 2 2 0 0 1 -.93-.28 1.89 1.89 0 0 1 -.75-.7.9.9 0 0 0 -.37-.35.68.68 0 0 1 -.28-.63 9.56 9.56 0 0 1 .61-2.61c.34-1 .63-1.9.86-2.65s.38-1.24.44-1.49-.78.34-2.33 1.68c-1.7 2-3.22 3.88-4.56 5.68a18.44 18.44 0 0 1 -1.54 1.93 1.48 1.48 0 0 1 -1 .58 1 1 0 0 1 -.7-.42 3.82 3.82 0 0 0 -.63-.46c-.29-.19-.44-.35-.44-.47s-.08-.37-.23-.37c-.19-.19.13-1.2.95-3.05a30.83 30.83 0 0 1 2.21-4.26.75.75 0 0 0 .28-.4c.06-.17.06-.25 0-.25s.16-.25.28-.47a5.44 5.44 0 0 1 .37-.56 4.25 4.25 0 0 0 .65-2.46.39.39 0 0 0 -.39-.14.65.65 0 0 0 -.26.09 3 3 0 0 1 -.49.16 2.31 2.31 0 0 0 -.67.31 3.82 3.82 0 0 1 -1.54.74c-.34 0-.67-.37-1-1.12a2.56 2.56 0 0 1 -.13-.79 1.17 1.17 0 0 1 .37-.93 7.47 7.47 0 0 1 1-.7 4.92 4.92 0 0 0 .7-.46 14.46 14.46 0 0 1 1.33-.63c.54-.23.95-.4 1.23-.49a3.71 3.71 0 0 1 1.12-.19 2.26 2.26 0 0 1 2.3 1.47 2.63 2.63 0 0 1 .65 1.68 5.73 5.73 0 0 1 -.65 2.19l-.47.7a1.17 1.17 0 0 0 -.14.37v.09s.26-.11.42-.32.36-.35.6-.59.42-.35.52-.35a.29.29 0 0 0 .14-.07c.06 0 .09-.16.09-.34l.46-.42a1.25 1.25 0 0 0 .6-.24c.24-.17.59-.43 1-.77a1.61 1.61 0 0 1 .93-.37 1.4 1.4 0 0 1 .42 0 1.64 1.64 0 0 1 1.44 1 4.69 4.69 0 0 1 .56 2.44l-1 2.51 1.68-2a9.05 9.05 0 0 1 1.12-1.12.52.52 0 0 1 .25-.35.67.67 0 0 1 .21-.07.19.19 0 0 0 .12-.05.14.14 0 0 0 .07-.14l.49-.34a1.57 1.57 0 0 0 .39-.35 2.72 2.72 0 0 1 1.12-.19 3.32 3.32 0 0 1 1.4.3 2.07 2.07 0 0 1 1 1l.39.63a3 3 0 0 1 .37.74 2.66 2.66 0 0 1 .12.86l-.19 1s-.07.49-.23 1.58a4.14 4.14 0 0 0 -.23 1.58 2.87 2.87 0 0 0 .07.84c0 .12.16.19.35.19a3.65 3.65 0 0 0 1-.42 7.65 7.65 0 0 0 1.05-.84 1.07 1.07 0 0 1 .75-.37.9.9 0 0 1 .72.35 2.13 2.13 0 0 1 .44.81c.09.19-.07.68-.49 1.49s-.74 1.21-.95 1.21-.24.12-.51.35-.52.41-.7.53c-.53.59-1 .89-1.31.89a1.7 1.7 0 0 0 -.49.11 1.47 1.47 0 0 1 -.53.12 1.37 1.37 0 0 1 -.44-.09z"/><path d="m67 37.71a3.51 3.51 0 0 1 -.35-1.77 18.34 18.34 0 0 1 .35-3.72v-.37c0-.19.07-.49.14-.91s.1-.54.13-.35l.28-1.26c.22-.86.43-1.67.63-2.42s.37-1.28.49-1.63l.51-1.63a21.41 21.41 0 0 1 2.61-6.09 1.35 1.35 0 0 1 .14-.35 1.51 1.51 0 0 0 .14-.35 2.07 2.07 0 0 1 .28-1.17c.28-.46.51-.88.7-1.25l.18-.51 1.31-2.66a3 3 0 0 1 .58-1 2.36 2.36 0 0 1 .91-.75 1.79 1.79 0 0 1 .86-.65 2.7 2.7 0 0 1 1.11-.34 1.31 1.31 0 0 1 1 .37 1.38 1.38 0 0 1 .37 1v.47a2.25 2.25 0 0 1 -.07.65 1.72 1.72 0 0 1 -.3.56s0 .13-.07.3-.15.33-.21.49a2.69 2.69 0 0 1 -.47.93c-.21.28-.93 1.59-2.14 3.93s-2 4-2.33 4.87l-.18.7-.09.28c-.35.74-.53 1.14-.56 1.21l-.75 2.88-.18 1-.42 1.07-.28.88a3.12 3.12 0 0 0 -.16.61 1.12 1.12 0 0 1 -.17.47v.23c0 .12-.14.48-.33 1.07-.28.87-.48 1.59-.61 2.16a11.71 11.71 0 0 0 -.23 1.84v.19a2.92 2.92 0 0 1 -.59 1.53 1 1 0 0 1 -1.14.33 1.78 1.78 0 0 1 -1.09-.84z"/><path d="m81.26 36.24a2.22 2.22 0 0 1 -.76-1 5.89 5.89 0 0 1 -.29-1.93 10.59 10.59 0 0 1 .13-1.83 7.57 7.57 0 0 1 .43-1.48l.17-.39a9.38 9.38 0 0 1 .42-1 11.29 11.29 0 0 1 1.09-1.84c.49-.73.87-1.27 1.16-1.63a6.57 6.57 0 0 1 .88-.93 16.38 16.38 0 0 1 1.33-1 2.31 2.31 0 0 1 2.39-.09 1.77 1.77 0 0 1 .79.88 1.72 1.72 0 0 1 .18.86 5 5 0 0 1 -.42 1.89 4.2 4.2 0 0 1 -1 1.55.47.47 0 0 1 -.34.12 1.13 1.13 0 0 1 -.48-.12 2.11 2.11 0 0 1 -.45-.31l-.19-.37s0-.06.08-.07a5.52 5.52 0 0 0 .48-.77 6.63 6.63 0 0 0 .43-.9l.11-.51a4.23 4.23 0 0 0 .11-.62.41.41 0 0 0 -.13-.29.2.2 0 0 0 -.15-.06 1.53 1.53 0 0 0 -.51.18 3.58 3.58 0 0 0 -1 .74 11.08 11.08 0 0 0 -1.14 1.32c-.56.73-1 1.33-1.28 1.8a6.25 6.25 0 0 0 -.68 1.44l-.2.48a1.16 1.16 0 0 1 -.06.36 2.55 2.55 0 0 1 -.16.47 8.36 8.36 0 0 0 -.26 1.92 4.44 4.44 0 0 0 .14 1.16 1.53 1.53 0 0 0 .39.73.66.66 0 0 0 .42.13 2 2 0 0 0 .66-.14l.8-.32.58-.25a5.27 5.27 0 0 0 .79-.39 2.63 2.63 0 0 0 .56-.4 1.42 1.42 0 0 1 .76-.34.31.31 0 0 1 .38.14 1.16 1.16 0 0 1 .13.6 1 1 0 0 1 -.34.61 4 4 0 0 1 -.82.63 3.11 3.11 0 0 1 -.9.48 7.17 7.17 0 0 1 -1.35.74 3.67 3.67 0 0 1 -1.41.33 1.87 1.87 0 0 1 -.37 0 3.78 3.78 0 0 1 -1.1-.58z"/><path d="m89.52 35.42a2.35 2.35 0 0 1 -.36-.27 3.08 3.08 0 0 1 -.57-.79 1.2 1.2 0 0 1 -.14-.72.59.59 0 0 0 0-.26 1.26 1.26 0 0 1 0-.16s-.07-.08-.07-.1a.07.07 0 0 1 0-.06v-.06c.07 0 .1-.07.07-.2a1.61 1.61 0 0 1 .13-.64 4.45 4.45 0 0 1 .42-.91 8.12 8.12 0 0 1 .59-.82 5.15 5.15 0 0 1 .7-.74 4 4 0 0 1 1.64-1 2.94 2.94 0 0 1 .71-.09 1.08 1.08 0 0 1 .82.29 1.16 1.16 0 0 1 .58.47 2.15 2.15 0 0 1 .24.82 2.86 2.86 0 0 1 0 .37 4.93 4.93 0 0 1 -1 2.8 5.58 5.58 0 0 1 -.84 1 7.5 7.5 0 0 1 -1 .72 1.91 1.91 0 0 1 -.69.3 8.57 8.57 0 0 1 -1 .1.68.68 0 0 1 -.23-.05zm2.7-2.78a9.53 9.53 0 0 0 .45-1.12 1.29 1.29 0 0 0 .11-.65c0-.29 0-.46-.13-.49a.33.33 0 0 0 -.22-.08 1.15 1.15 0 0 0 -.52.26 6 6 0 0 0 -1.07 1.14 3.44 3.44 0 0 0 -.59 1.35 1.18 1.18 0 0 0 0 .22c0 .42.15.62.44.62a1.69 1.69 0 0 0 1-.62 1.9 1.9 0 0 0 .53-.63z"/><path d="m99.69 35.86a1.14 1.14 0 0 1 -.32-.38 2.46 2.46 0 0 1 -.13-.5c0-.17 0-.39-.06-.67v-.62l-.75.68a3.32 3.32 0 0 1 -2.13 1.07 1.68 1.68 0 0 1 -.74-.49 2.3 2.3 0 0 1 -.56-.75 1.06 1.06 0 0 1 -.07-.45 5.72 5.72 0 0 1 1.27-3.25 2.8 2.8 0 0 1 1-.91 2.38 2.38 0 0 1 1.14-.31 1.91 1.91 0 0 1 1 .24.94.94 0 0 0 .42.13c.12 0 .2-.08.23-.24l.22-.73.2-.58c.27-.8.5-1.44.69-1.93s.44-1 .71-1.6a1.81 1.81 0 0 1 .39-.57.48.48 0 0 1 .36-.16 1.12 1.12 0 0 1 .44.16.79.79 0 0 1 .37.4.68.68 0 0 1 .06.31.93.93 0 0 1 -.11.41 18.72 18.72 0 0 0 -1.17 2.68c-.46 1.24-.82 2.31-1.07 3.22a6.5 6.5 0 0 0 -.21 1.37q-.06.87-.06 1.71a5 5 0 0 0 0 1 1.14 1.14 0 0 1 0 .3.44.44 0 0 1 -.21.42 1.5 1.5 0 0 1 -.54.16.56.56 0 0 1 -.37-.12zm-1.62-2.64a4.67 4.67 0 0 0 .8-.71 2.53 2.53 0 0 0 .39-.79.81.81 0 0 0 0-.25.78.78 0 0 0 -.31-.6.63.63 0 0 0 -.41-.15 1.24 1.24 0 0 0 -.81.4 3.92 3.92 0 0 0 -.76 1 5.76 5.76 0 0 0 -.49 1.46.21.21 0 0 0 0 .21.3.3 0 0 0 .24.09 1 1 0 0 0 .37-.1 4 4 0 0 0 .98-.56z"/><path d="m102.71 35.15a2.31 2.31 0 0 1 -.4-1.13c0-.45.09-.78.11-1 .14-.6.3-1.3.5-2.11s.32-1.25.36-1.34a.31.31 0 0 1 .29-.16.92.92 0 0 1 .45.15 1.41 1.41 0 0 1 .41.43.83.83 0 0 1 .14.46 7.48 7.48 0 0 1 -.36 1.6q-.25.91-.33 1.29a3.15 3.15 0 0 0 0 .82 8.92 8.92 0 0 1 -.15 1.13c-.05.21-.12.31-.22.29a.91.91 0 0 1 -.8-.43zm2.32-7a.58.58 0 0 1 -.24-.11.91.91 0 0 1 -.48-.31c-.2-.19-.3-.32-.3-.38a3.8 3.8 0 0 1 0-.63 2.77 2.77 0 0 1 .21-.74c.11-.22.24-.33.41-.34a2.66 2.66 0 0 1 .35.08l.49.17a2.79 2.79 0 0 1 .35 1.19 1 1 0 0 1 -.71 1 .21.21 0 0 1 -.11.02z"/><path d="m111.45 32.85c0 .11-.08.35-.16.7a5.27 5.27 0 0 0 -.13.82 1 1 0 0 0 .08.41 1.92 1.92 0 0 1 .08.24.53.53 0 0 1 -.16.36.57.57 0 0 1 -.42.17 1 1 0 0 1 -.78-.39 1.55 1.55 0 0 1 -.33-1 9.36 9.36 0 0 1 .4-2 2.6 2.6 0 0 1 .06-.3.67.67 0 0 0 0-.17c0-.07 0-.1-.06-.1a.73.73 0 0 0 -.36.18q-.24.16-.51.39l-.46.38a14.6 14.6 0 0 0 -1.22 1l-.61.5a2.06 2.06 0 0 1 -.55.41 1.16 1.16 0 0 1 -.32-.11 1.72 1.72 0 0 1 -.45-.31.54.54 0 0 1 -.21-.41 5.88 5.88 0 0 1 .32-1.26 15.33 15.33 0 0 1 .79-1.93 3.8 3.8 0 0 0 .12-.55 1.57 1.57 0 0 1 .24-.82.34.34 0 0 1 .31-.18.91.91 0 0 1 .68.36 1.19 1.19 0 0 1 .32.81 2.85 2.85 0 0 1 -.17.81 3 3 0 0 1 -.25.59l.23-.19a2.88 2.88 0 0 1 .47-.34c.41-.31.72-.53.92-.65a3.62 3.62 0 0 0 .44-.26l.12-.08h.06l.21-.08a.79.79 0 0 1 .25-.06 1 1 0 0 1 .57.19q.3.18.3.39a.4.4 0 0 0 .13.19 1.36 1.36 0 0 1 .22.33 1.38 1.38 0 0 1 .09.57 9.91 9.91 0 0 1 -.26 1.39z"/><path d="m113.17 39a3.06 3.06 0 0 1 -1-.78 1.5 1.5 0 0 1 -.4-1 .23.23 0 0 1 .15-.22.62.62 0 0 1 .29-.07 1.88 1.88 0 0 1 .43 0c.12 0 .19.08.19.13a3 3 0 0 0 .61.45 1.19 1.19 0 0 0 .52.15c.4 0 .71-.48.94-1.46l.06-.23c.36-1.61.6-2.57.71-2.9a.79.79 0 0 0 -.2.07l-.44.22a2.58 2.58 0 0 1 -1 .35h-.22a1.29 1.29 0 0 1 -.49-.12 2 2 0 0 1 -.48-.3.93.93 0 0 1 -.28-.46 2.29 2.29 0 0 1 .25-1.69 4.91 4.91 0 0 1 .83-1.31 6.92 6.92 0 0 1 1.51-1 3.74 3.74 0 0 1 1.53-.5.62.62 0 0 1 .37.11 1.49 1.49 0 0 1 .69.41 2.78 2.78 0 0 1 .58.85 2.49 2.49 0 0 1 .24 1.07.48.48 0 0 1 -.15.42.44.44 0 0 1 -.09.3.45.45 0 0 1 -.23.1.58.58 0 0 0 -.34.15 1 1 0 0 0 -.25.54l-.09.37-.08.14c0 .08-.08.18-.13.3a1.31 1.31 0 0 0 -.06.38l-.07.2a4.59 4.59 0 0 0 -.15.51l-.07.36a14.66 14.66 0 0 1 -1.09 3.68c-.38.69-.79 1-1.22 1a3 3 0 0 1 -1.37-.22zm2-6.8a4.48 4.48 0 0 0 1-.76 2.29 2.29 0 0 0 .61-1 1.5 1.5 0 0 0 .07-.31c0-.15-.12-.23-.35-.24h-.11a3.07 3.07 0 0 0 -1.42.58 1.6 1.6 0 0 1 -.44.46l-.14.07a2.75 2.75 0 0 1 -.17.29l-.16.22a1 1 0 0 0 -.27.6.26.26 0 0 0 .15.27 2 2 0 0 0 .43.1 1.9 1.9 0 0 0 .8-.26z"/><path d="m124.24 34.67a3.4 3.4 0 0 1 -.42-1 3.46 3.46 0 0 1 -.12-1.18 5.49 5.49 0 0 1 .09-1.09c.06-.29.09-.47.11-.55a1.59 1.59 0 0 0 .07-.32 4.89 4.89 0 0 1 .15-.64 2.58 2.58 0 0 1 .29-.79.78.78 0 0 1 .67-.36.65.65 0 0 1 .39.12.41.41 0 0 1 .19.33c.08.08.11.25.11.53a3.83 3.83 0 0 1 0 .6 1.1 1.1 0 0 1 -.15.42 7.68 7.68 0 0 0 -.16 1.06c0 .46-.09.76-.11.89a1 1 0 0 0 0 .2c0 .16 0 .24.13.24s.51-.36 1-1.08a11 11 0 0 0 .65-1c.1-.21.23-.54.39-1a2.3 2.3 0 0 1 .33-.73.58.58 0 0 1 .51-.25 1 1 0 0 1 .58.2 1 1 0 0 1 .27.71 1.54 1.54 0 0 1 -.18.69 6.72 6.72 0 0 0 -.4 1.11 4.29 4.29 0 0 0 -.18 1.08c0 .22 0 .35.08.41a.37.37 0 0 0 .26.08.6.6 0 0 0 .39-.15 4.83 4.83 0 0 0 .61-.56 7.34 7.34 0 0 0 .86-1.17 3.94 3.94 0 0 0 .55-1 .6.6 0 0 1 .16-.31l.17-.21a1.08 1.08 0 0 1 .25-.19h.18a.62.62 0 0 1 .46.2.67.67 0 0 1 .12.34 2.5 2.5 0 0 1 .06.51 6 6 0 0 1 -.6 1.66 2.34 2.34 0 0 0 -.58.67 6 6 0 0 1 -.69.74l-.32.28a3 3 0 0 1 -.92.64 2.42 2.42 0 0 1 -1 .24.93.93 0 0 1 -.58-.17 1 1 0 0 1 -.57-1 1 1 0 0 0 0-.24.69.69 0 0 0 -.06-.14.49.49 0 0 0 -.43.29 3.14 3.14 0 0 1 -.94.9 2.21 2.21 0 0 1 -1 .47c-.3-.07-.49-.21-.67-.48z"/><path d="m133.15 34.93-.29-.13a.7.7 0 0 0 0-.19 1 1 0 0 1 0-.17.57.57 0 0 1 -.26-.25.43.43 0 0 1 0-.35 21.31 21.31 0 0 0 .92-2c.45-1 .69-1.66.74-1.82a.62.62 0 0 1 .26-.56.43.43 0 0 1 .25-.09c.21 0 .4.14.58.42a1.69 1.69 0 0 1 .28 1 5.8 5.8 0 0 1 -.41 1.25c-.28.68-.58 1.37-.92 2.06a6.85 6.85 0 0 1 -.43.77.4.4 0 0 1 -.32.18 1.08 1.08 0 0 1 -.4-.12zm2.21-7.08a2.05 2.05 0 0 1 -.54-.52 1.14 1.14 0 0 1 -.23-.65 2.35 2.35 0 0 1 .41-.68 1.29 1.29 0 0 0 .25-.42 1.56 1.56 0 0 1 .33.05 2.34 2.34 0 0 1 .35.13 2.85 2.85 0 0 0 .43.66 3.29 3.29 0 0 1 .32.45.87.87 0 0 1 -.11 1 1 1 0 0 1 -.66.2 1.07 1.07 0 0 1 -.55-.22z"/><path d="m137.29 35.06a1.61 1.61 0 0 1 -.36-.72 8.48 8.48 0 0 1 -.06-1.27 13.34 13.34 0 0 1 .44-2.18c0-.05.05-.22.13-.49a.19.19 0 0 0 -.15-.26 2.09 2.09 0 0 0 -.56-.05 1.08 1.08 0 0 1 -.37 0s-.06-.07-.06-.16a1.92 1.92 0 0 1 0-.2.14.14 0 0 0 -.08-.11.44.44 0 0 1 -.12-.11s0-.14.09-.28a.55.55 0 0 1 .33-.23c.07 0 .23 0 .47-.06a3.22 3.22 0 0 0 .7-.14 1.1 1.1 0 0 0 .5-.31c.16-.42.35-.85.56-1.31a3.19 3.19 0 0 1 .45-.82 1.16 1.16 0 0 1 .52-.15.69.69 0 0 1 .62.33.86.86 0 0 0 .13.14.23.23 0 0 1 .07.17 1.17 1.17 0 0 1 -.12.4c-.08.18-.23.48-.46.89l-.24.46h.59a3.6 3.6 0 0 1 .62-.08h.23q.76 0 .84.84a.34.34 0 0 1 -.16.35 1.08 1.08 0 0 1 -.66.14 7 7 0 0 0 -1.89.17 1.45 1.45 0 0 0 -.29.56 6.76 6.76 0 0 0 -.55 2.75 1.63 1.63 0 0 0 .23 1 .28.28 0 0 0 .21.07 1.74 1.74 0 0 0 .92-.49.66.66 0 0 1 .44-.18.37.37 0 0 1 .32.14.6.6 0 0 1 .12.38.89.89 0 0 1 -.18.53 2.09 2.09 0 0 1 -.82.69 2.26 2.26 0 0 1 -1 .28.76.76 0 0 1 -.31 0 3 3 0 0 1 -1.09-.69z"/><path d="m147.19 35.64a.81.81 0 0 1 -.6-.24l-.19-.26a1.35 1.35 0 0 1 -.2-.42 2.26 2.26 0 0 1 -.06-.57 2.89 2.89 0 0 1 0-.44c0-.12 0-.22 0-.29v-.53a3.31 3.31 0 0 0 .09-.77c0-.32-.06-.49-.16-.49-.36-.06-1.31.79-2.86 2.55a2.08 2.08 0 0 0 -.24.35l-.31.42c-.08.11-.15.16-.18.16a1.3 1.3 0 0 1 -.84-.23.89.89 0 0 1 -.4-.61 19.25 19.25 0 0 1 .73-2.42l.8-2.37c.1-.3.27-.75.53-1.36l.34-.89.22-.55.84-2.22v-.07a.58.58 0 0 1 .13-.44h.25s.09 0 .27.08a3 3 0 0 1 .49.28c.15.1.23.18.23.24a.88.88 0 0 1 .05.29 4.56 4.56 0 0 1 -.42 1.44 6.42 6.42 0 0 0 -.49 1.15c-.12.34-.21.58-.27.71a10.12 10.12 0 0 0 -.55 1.26c-.24.62-.44 1.2-.6 1.76a1.47 1.47 0 0 0 -.15.51q0 .09.06.09c.08 0 .22-.11.4-.34a19.79 19.79 0 0 1 1.53-1.5 1.42 1.42 0 0 1 1-.42 1.87 1.87 0 0 1 .7.45 1.91 1.91 0 0 1 .56.68 3.24 3.24 0 0 1 .11.82c0 .19 0 .72-.09 1.61-.1.6-.15 1-.15 1.05a.48.48 0 0 0 .05.24 1 1 0 0 0 .19.2.52.52 0 0 1 .22.45.52.52 0 0 1 -.31.51 3 3 0 0 1 -.72.13z"/><path d="m154.77 37.14a2.27 2.27 0 0 0 -.46-.1.59.59 0 0 1 -.35-.23.73.73 0 0 1 -.14-.42 1 1 0 0 1 0-.2.61.61 0 0 0 .1-.29 2.08 2.08 0 0 0 .05-.41l.09-.22.09-.34c.1-.53.32-1.43.67-2.7a10.69 10.69 0 0 1 .66-2v-.23a1.69 1.69 0 0 1 0-.22 1.08 1.08 0 0 1 .17-.34 4 4 0 0 0 .12-.43c0-.14.05-.25.06-.32a2.87 2.87 0 0 0 .25-.54c.11-.31.19-.51.22-.61s.19-.5.32-.81.22-.51.27-.61v-.12s.08-.15.19-.37l.26-.57.68-1.52.2-.41a1.56 1.56 0 0 0 .16-.44.51.51 0 0 1 .4-.2.74.74 0 0 1 .52.24 2.62 2.62 0 0 1 .39.52l.18.29-.67 1.32c-.18.32-.35.63-.49.92a1.93 1.93 0 0 0 -.22.5c0 .08-.1.26-.19.52l-.3.91c-.17.47-.31.81-.42 1a1.45 1.45 0 0 0 -.15.35 10.68 10.68 0 0 1 2-.07h1.13a7.59 7.59 0 0 0 1-.06l1-.09.51-1.62c.12-.42.39-1.25.8-2.48a3.28 3.28 0 0 1 .58-1.13c.22-.25.41-.38.58-.38a1.12 1.12 0 0 1 .38.21.87.87 0 0 1 .35.36.56.56 0 0 1 .2.42 1.45 1.45 0 0 1 -.29.71 12.45 12.45 0 0 0 -.62 1.44c-.11.32-.17.51-.2.56a.75.75 0 0 1 -.18.56 2.44 2.44 0 0 0 -.25.52 2.42 2.42 0 0 0 -.19.52.93.93 0 0 1 0 .32.64.64 0 0 1 -.13.25l-.13.43a29.93 29.93 0 0 1 -1 3.21 1.17 1.17 0 0 1 -.09.33 1.09 1.09 0 0 0 -.09.33c0 .08-.08.25-.16.5a2.26 2.26 0 0 0 -.13.46c-.09.38-.17.82-.26 1.33s-.14.87-.16 1.07a1 1 0 0 1 -.51 0 2.69 2.69 0 0 1 -.38-.19l-.26-.16a.71.71 0 0 1 -.43-.65 1.3 1.3 0 0 1 .16-.57 11.22 11.22 0 0 0 .34-1.19l.16-.68c.1-.26.18-.52.25-.77s.14-.47.2-.65a6.52 6.52 0 0 1 .37-1.13v-.18a2.83 2.83 0 0 0 -1.08-.09 18.63 18.63 0 0 0 -2.31.15h-1.56c-.07.13-.24.66-.53 1.59a14.3 14.3 0 0 0 -.49 1.78c-.09.4-.22.95-.41 1.66s-.32 1.23-.41 1.56z"/><path d="m165.75 35.68a4.09 4.09 0 0 1 -.49-2.19 14.44 14.44 0 0 1 .34-2.88 25.8 25.8 0 0 1 .94-3.17 20.38 20.38 0 0 1 1.36-3.07 4.26 4.26 0 0 1 .73-1 .74.74 0 0 1 .6-.23 1.13 1.13 0 0 1 .64.33.89.89 0 0 1 .23.58.62.62 0 0 1 -.31.56 4.42 4.42 0 0 0 -.4.65c-.17.32-.28.52-.32.61l-.44.82c-.43 1.21-.74 2.15-.94 2.8a16.22 16.22 0 0 0 -.48 2.08c-.22 1-.35 1.6-.38 1.79a5.39 5.39 0 0 0 0 .78c0 .07.08.16.14.28a1.73 1.73 0 0 0 .17.25.26.26 0 0 0 .16.1 1.47 1.47 0 0 0 .6.15 1.51 1.51 0 0 0 .73-.22.58.58 0 0 1 .21-.23l.17-.1s.05.06.06.06.07 0 .09-.13c0-.06 0-.14.16-.25a1.54 1.54 0 0 0 .5-.47 6.81 6.81 0 0 0 .59-.82 1.73 1.73 0 0 0 .26-.53.34.34 0 0 1 .1-.2 1.12 1.12 0 0 1 .14-.15 7.34 7.34 0 0 0 .64-1.11q.53-1 1-1.89c.18-.6.43-1.44.76-2.52s.51-1.77.57-2.07a1.36 1.36 0 0 1 .11-.4c.05-.11.08-.19.09-.22a.47.47 0 0 1 .31-.11 1.14 1.14 0 0 1 .6.19l.37.23a.46.46 0 0 1 .09.31 5.37 5.37 0 0 1 -.17.91c-.06.24-.14.6-.23 1.09a19 19 0 0 1 -.7 2.17c-.26.68-.61 1.5-1 2.46l-.17.35c-.06.13-.12.27-.18.43v.11a.87.87 0 0 0 -.35.38c0 .06-.08.14-.13.25a.65.65 0 0 1 -.18.21 2 2 0 0 1 -.1.27l-.06.14a.3.3 0 0 1 -.16.2.87.87 0 0 1 -.19.11.27.27 0 0 0 -.1.17.38.38 0 0 1 -.08.16 9.27 9.27 0 0 1 -1.65 1.78 6 6 0 0 1 -1.7 1.13 1.85 1.85 0 0 1 -.63.14 1.22 1.22 0 0 1 -.37 0 2.38 2.38 0 0 1 -1.55-1.07z"/><path d="m175.38 36.31a3.24 3.24 0 0 1 -.74-1.33 4.7 4.7 0 0 1 -.22-1.31 13.69 13.69 0 0 1 .62-3.91 16.68 16.68 0 0 1 1.66-4 6.86 6.86 0 0 1 1.76-2.08 4.77 4.77 0 0 1 .84-.4 3.66 3.66 0 0 1 1.13-.22 2.5 2.5 0 0 1 .64.06 5.13 5.13 0 0 1 .87.26 2.9 2.9 0 0 1 .58.3c.06.09.16.21.3.38a2.31 2.31 0 0 1 .31.46 1.08 1.08 0 0 1 .1.51 1 1 0 0 1 -.21.64.64.64 0 0 1 -.5.25.52.52 0 0 1 -.35-.15.76.76 0 0 1 -.23-.41 1.87 1.87 0 0 0 -.71-.53 2.12 2.12 0 0 0 -.84-.18 1.61 1.61 0 0 0 -1 .42 7 7 0 0 0 -1.7 2.38 17.35 17.35 0 0 0 -1.17 3.31 12.76 12.76 0 0 0 -.4 2.85 2.31 2.31 0 0 0 .26 1.19.81.81 0 0 0 .72.45 1.43 1.43 0 0 0 .43-.09 2.45 2.45 0 0 0 .47-.16 2.58 2.58 0 0 0 1.21-.83 7.4 7.4 0 0 0 1.09-1.56 3.21 3.21 0 0 0 .45-1.37.25.25 0 0 0 -.16-.27 1.13 1.13 0 0 0 -.32-.05h-.51a4.73 4.73 0 0 1 -1.11-.1.47.47 0 0 1 -.34-.5.8.8 0 0 1 .45-.64 3 3 0 0 1 1.5-.29 2.85 2.85 0 0 1 1.62.39 1.69 1.69 0 0 1 .56 1.48 3 3 0 0 1 0 .39l-.13.38a7.81 7.81 0 0 1 -1.47 2.6 7.08 7.08 0 0 1 -2.07 1.7 4.35 4.35 0 0 1 -2 .6 1.69 1.69 0 0 1 -1.39-.62z"/><path d="m183.39 34.69a3.51 3.51 0 0 1 -.5-1.89 4 4 0 0 1 .11-.8 6.18 6.18 0 0 1 .22-1.11 4 4 0 0 0 .16-.68.79.79 0 0 1 0-.12.28.28 0 0 0 0-.15c.07-.18.18-.44.32-.77a3.3 3.3 0 0 1 .26-.54c.05 0 .08-.06.08-.09a.28.28 0 0 0 0-.08 2.92 2.92 0 0 1 .5-1 18.41 18.41 0 0 1 1.09-1.53c.38-.5.62-.75.69-.75s.05 0 .09-.08.06-.09.07-.09a4.9 4.9 0 0 1 1-.53 9 9 0 0 1 1.52-.48 2.15 2.15 0 0 1 .75-.13 1.75 1.75 0 0 1 1.51.87 4.28 4.28 0 0 1 .6 2.39c0 .18-.06.45-.09.8a4.48 4.48 0 0 1 -.05.48 7 7 0 0 1 -.23 1.35 2.44 2.44 0 0 1 -.28.83.38.38 0 0 1 0 .13.38.38 0 0 0 0 .13 3.59 3.59 0 0 1 -.47 1.13 5.81 5.81 0 0 1 -.56 1 .06.06 0 0 0 -.05 0s0 0 0 .07-.08.14-.28.33-.34.27-.43.27 0 0 0 0v.07s-.15.19-.52.47-.77.55-1.19.81a3.84 3.84 0 0 1 -1 .47.3.3 0 0 1 -.15.09h-.1a1.28 1.28 0 0 1 -.47.22 2.5 2.5 0 0 1 -.66.09 1.26 1.26 0 0 1 -.49-.09 2.53 2.53 0 0 1 -1.45-1.09zm4.27-1.41a1.8 1.8 0 0 0 .66-.75.87.87 0 0 1 .25-.46 5.75 5.75 0 0 0 .83-1.43 5.41 5.41 0 0 0 .54-1.52 1.49 1.49 0 0 1 .05-.35 1.1 1.1 0 0 1 .13-.36.53.53 0 0 0 0-.25 4 4 0 0 1 0-.55c0-.32 0-.59 0-.82 0-.79-.16-1.25-.37-1.37a.86.86 0 0 0 -.49-.11 1.48 1.48 0 0 0 -.24 0l-.25.08a.67.67 0 0 1 -.26.07c-.17.09-.25.2-.25.32a.37.37 0 0 1 -.14.28.23.23 0 0 1 -.28 0 .81.81 0 0 0 -.42.09 1.3 1.3 0 0 0 -.24.34c-.08.17-.16.32-.23.44a2.47 2.47 0 0 0 -.69.73 2.21 2.21 0 0 0 -.3.64 10.4 10.4 0 0 0 -.7 1.37 5.8 5.8 0 0 0 -.22 1.07 2.23 2.23 0 0 0 -.23.63 2.75 2.75 0 0 1 -.14.48 1.87 1.87 0 0 0 0 .38 6 6 0 0 0 .05.83 1.49 1.49 0 0 0 .15.57.6.6 0 0 0 .63.49 2.73 2.73 0 0 0 1.08-.31 3.9 3.9 0 0 0 1.08-.53z"/></g></svg>